<svg width="117" height="48" viewBox="0 0 117 48" fill="none" xmlns="http://www.w3.org/2000/svg">
<path d="M1.04985 21.6061C1.53271 10.0182 11.318 1.01577 22.9059 1.49862L114.826 5.3288C115.93 5.37478 116.787 6.30672 116.741 7.41033L115.95 26.3939C115.467 37.9818 105.682 46.9842 94.0941 46.5014L4.17211 42.7545C1.96488 42.6625 0.250133 40.7986 0.342105 38.5914L1.04985 21.6061Z" fill="white" fill-opacity="0.3"/>
<g filter="url(#filter0_d_1_19)">
<path d="M11.936 14.104C11.936 13.5493 12.1813 12.984 12.672 12.408C13.184 11.8107 13.6747 11.512 14.144 11.512C14.6347 11.512 15.2107 12.088 15.872 13.24C16.5333 14.392 16.864 15.2347 16.864 15.768C16.864 16.28 16.6933 16.6747 16.352 16.952C16.0107 17.2293 15.6587 17.368 15.296 17.368C14.6773 17.368 13.9627 16.9627 13.152 16.152C12.3413 15.3413 11.936 14.6587 11.936 14.104ZM12.416 18.104C13.1627 18.104 13.824 18.5307 14.4 19.384C14.9973 20.2373 15.296 21.0587 15.296 21.848C15.296 22.2533 14.9227 23.7147 14.176 26.232C13.4507 28.728 12.7253 31.096 12 33.336C11.744 34.168 11.2213 34.584 10.432 34.584C9.96267 34.584 9.54667 34.4133 9.184 34.072C8.84267 33.7093 8.672 33.2507 8.672 32.696C8.672 32.12 8.93867 30.712 9.472 28.472C10.0267 26.2107 10.4427 24.2907 10.72 22.712C11.0187 21.112 11.2853 19.9493 11.52 19.224C11.776 18.4773 12.0747 18.104 12.416 18.104Z" fill="#A532FF"/>
<path d="M34.8405 11C35.4592 11 36.1418 11.32 36.8885 11.96C37.6565 12.6 38.0405 13.1227 38.0405 13.528C38.0405 14.872 37.7205 17.208 37.0805 20.536C36.4618 23.8427 35.6618 27.0107 34.6805 30.04C33.6992 33.0693 32.8138 34.584 32.0245 34.584C31.7045 34.584 31.2885 34.4133 30.7765 34.072C30.2645 33.7093 29.9232 33.2933 29.7525 32.824C29.5818 32.3333 29.2512 31.3307 28.7605 29.816C27.6298 26.3387 26.5632 23.4587 25.5605 21.176C25.4112 21.816 25.2085 22.7227 24.9525 23.896C24.7178 25.0693 24.5258 25.9973 24.3765 26.68C24.2272 27.3413 24.0458 28.152 23.8325 29.112C23.6192 30.0507 23.4272 30.7973 23.2565 31.352C23.1072 31.9067 22.9365 32.4613 22.7445 33.016C22.4032 34.0613 22.0832 34.584 21.7845 34.584C21.3578 34.584 20.8032 34.2 20.1205 33.432C19.4378 32.6427 19.0965 31.9707 19.0965 31.416C19.0965 30.84 19.7045 27.864 20.9205 22.488C22.1578 17.112 22.8298 13.7413 22.9365 12.376C23.0005 11.5653 23.2458 11.16 23.6725 11.16C24.0352 11.16 24.4938 11.3733 25.0485 11.8C25.6245 12.2267 26.1152 12.7493 26.5205 13.368C26.9472 13.9653 27.7045 15.9387 28.7925 19.288C29.8805 22.6373 30.7445 25.0373 31.3845 26.488C32.2165 24.0133 32.9845 20.28 33.6885 15.288C33.9658 13.304 34.1472 12.0987 34.2325 11.672C34.3178 11.224 34.5205 11 34.8405 11ZM45.332 31.352C46.484 30.84 47.4867 29.8053 48.34 28.248C49.1933 26.6907 49.62 25.2293 49.62 23.864C49.62 22.4987 49.428 21.56 49.044 21.048C48.1267 21.5813 47.2093 22.7013 46.292 24.408C45.396 26.1147 44.948 27.6187 44.948 28.92C44.948 30.2 45.076 31.0107 45.332 31.352ZM40.66 29.24C40.66 26.5733 41.4813 24.0453 43.124 21.656C44.788 19.2667 46.4307 18.072 48.052 18.072C49.6733 18.072 51.0387 18.648 52.148 19.8C53.2573 20.9307 53.812 22.3067 53.812 23.928C53.812 25.528 53.428 27.16 52.66 28.824C51.892 30.488 50.8147 31.8747 49.428 32.984C48.0413 34.072 46.5587 34.616 44.98 34.616C43.8067 34.616 42.7933 34.0933 41.94 33.048C41.0867 32.0027 40.66 30.7333 40.66 29.24ZM65.4617 21.912C65.2911 22.488 65.0351 23.2987 64.6937 24.344C64.3737 25.368 63.9684 26.6587 63.4777 28.216C63.0084 29.7733 62.7737 30.6053 62.7737 30.712C62.7737 30.7973 62.9444 30.84 63.2857 30.84C63.6484 30.84 64.4911 30.6053 65.8137 30.136C67.1364 29.6453 67.9151 29.4 68.1497 29.4C68.6831 29.4 68.9497 29.7627 68.9497 30.488C68.9497 31.2133 68.2351 32.088 66.8057 33.112C65.3764 34.1147 63.8831 34.616 62.3257 34.616C61.6431 34.616 60.8324 34.2427 59.8937 33.496C58.9551 32.7493 58.4857 31.992 58.4857 31.224C58.4857 30.584 58.8057 29.24 59.4457 27.192C60.1071 25.1227 60.5551 23.704 60.7897 22.936C59.9577 23.1707 59.3284 23.288 58.9017 23.288C58.4751 23.288 58.0271 23 57.5577 22.424C57.0884 21.8267 56.8537 21.2613 56.8537 20.728C56.8537 20.0453 58.5071 19.4693 61.8137 19C62.2191 17.016 62.4217 15.2987 62.4217 13.848C62.4217 13.208 62.7417 12.888 63.3817 12.888C63.9364 12.888 64.6404 13.2293 65.4937 13.912C66.3684 14.5733 66.8057 15.2347 66.8057 15.896C66.8057 16.536 66.6671 17.4427 66.3897 18.616C67.4137 18.5733 68.1924 18.552 68.7257 18.552C70.3257 18.552 71.1257 18.9147 71.1257 19.64C71.1257 20.1093 70.6564 20.5147 69.7177 20.856C68.8004 21.176 67.3817 21.528 65.4617 21.912ZM87.7073 24.088C87.7073 25.1333 86.9926 26.072 85.5633 26.904C84.1553 27.736 82.7046 28.152 81.2113 28.152C79.7179 28.152 78.4913 28.0453 77.5313 27.832C77.3393 28.408 77.2433 28.984 77.2433 29.56C77.2433 30.136 77.3393 30.552 77.5313 30.808C77.7233 31.0427 78.2033 31.16 78.9713 31.16C80.5713 31.16 81.9366 31.0107 83.0673 30.712C84.2193 30.4133 84.8166 30.264 84.8593 30.264C85.7339 30.264 86.1713 30.552 86.1713 31.128C86.1713 31.96 85.4779 32.7493 84.0913 33.496C82.7259 34.2427 81.1366 34.616 79.3233 34.616C77.5313 34.616 76.0913 34.0507 75.0033 32.92C73.9153 31.7893 73.3713 30.456 73.3713 28.92C73.3713 27.3627 73.8193 25.7413 74.7153 24.056C75.6326 22.3707 76.7739 20.9627 78.1393 19.832C79.5046 18.68 80.8593 18.104 82.2033 18.104C83.5686 18.104 84.8273 18.776 85.9793 20.12C87.1313 21.4427 87.7073 22.7653 87.7073 24.088ZM83.9953 23.576C83.9953 23.3627 83.7713 23.0533 83.3233 22.648C82.8753 22.2427 82.4486 22.04 82.0433 22.04C81.6593 22.04 81.1579 22.328 80.5393 22.904C79.9206 23.4587 79.3339 24.184 78.7793 25.08C78.9713 25.1013 79.2486 25.112 79.6113 25.112C82.5339 25.112 83.9953 24.6 83.9953 23.576ZM100.964 18.136C101.775 18.136 102.575 18.616 103.364 19.576C104.154 20.536 104.548 21.4 104.548 22.168C104.548 22.68 104.324 22.936 103.876 22.936C103.62 22.936 103.247 22.84 102.756 22.648C102.266 22.4347 101.764 22.328 101.252 22.328C100.762 22.328 100.026 22.4987 99.0443 22.84C98.0843 23.1813 97.6043 23.6293 97.6043 24.184C97.6043 24.3973 97.8923 24.7067 98.4683 25.112C99.0443 25.5173 99.6736 25.9333 100.356 26.36C101.039 26.7867 101.668 27.384 102.244 28.152C102.82 28.8987 103.108 29.72 103.108 30.616C103.108 31.4907 102.458 32.376 101.156 33.272C99.8763 34.168 98.3616 34.616 96.6123 34.616C94.8843 34.616 93.4016 34.2213 92.1643 33.432C90.9269 32.6427 90.3083 31.832 90.3083 31C90.3083 30.168 90.6496 29.752 91.3323 29.752C91.6096 29.752 91.9403 29.8587 92.3243 30.072C93.3909 30.6907 94.7136 31 96.2923 31C97.8923 31 98.6923 30.7867 98.6923 30.36C98.6923 29.9333 98.3829 29.464 97.7643 28.952C97.1669 28.4187 96.5056 27.928 95.7803 27.48C95.0763 27.032 94.4149 26.488 93.7963 25.848C93.1989 25.1867 92.9003 24.5467 92.9003 23.928C92.9003 22.776 93.9456 21.528 96.0363 20.184C98.1269 18.8187 99.7696 18.136 100.964 18.136Z" fill="#416BFF"/>
</g>
<defs>
<filter id="filter0_d_1_19" x="6.672" y="11" width="99.8763" height="27.616" filterUnits="userSpaceOnUse" color-interpolation-filters="sRGB">
<feFlood flood-opacity="0" result="BackgroundImageFix"/>
<feColorMatrix in="SourceAlpha" type="matrix" values="0 0 0 0 0 0 0 0 0 0 0 0 0 0 0 0 0 0 127 0" result="hardAlpha"/>
<feOffset dy="2"/>
<feGaussianBlur stdDeviation="1"/>
<feComposite in2="hardAlpha" operator="out"/>
<feColorMatrix type="matrix" values="0 0 0 0 0.428333 0 0 0 0 0.416667 0 0 0 0 1 0 0 0 0.2 0"/>
<feBlend mode="normal" in2="BackgroundImageFix" result="effect1_dropShadow_1_19"/>
<feBlend mode="normal" in="SourceGraphic" in2="effect1_dropShadow_1_19" result="shape"/>
</filter>
</defs>
</svg>
